<svg width="1061" height="508" viewBox="0 0 1061 508" fill="none" xmlns="http://www.w3.org/2000/svg">
<g clip-path="url(#clip0_293_1458)">
<path d="M828.792 76.5729H568.622V71.2109H450.651V76.5729H189.409C184.741 76.5729 180.264 78.4272 176.964 81.7279C173.663 85.0285 171.809 89.5051 171.809 94.1729V450.423C171.809 455.091 173.663 459.567 176.964 462.868C180.264 466.169 184.741 468.023 189.409 468.023H828.792C833.459 468.023 837.936 466.169 841.237 462.868C844.537 459.567 846.392 455.091 846.392 450.423V94.171C846.391 89.5035 844.537 85.0274 841.236 81.7272C837.935 78.427 833.459 76.5729 828.792 76.5729Z" fill="#3F3D56"/>
<path d="M822.797 107.674H195.406V461.587H822.797V107.674Z" fill="#E6E6E6"/>
<path d="M796.403 126.391H222.012V432.304H796.403V126.391Z" fill="#D9D9D9"/>
<path d="M508.564 98.0223C512.118 98.0223 514.999 95.1413 514.999 91.5873C514.999 88.0334 512.118 85.1523 508.564 85.1523C505.01 85.1523 502.129 88.0334 502.129 91.5873C502.129 95.1413 505.01 98.0223 508.564 98.0223Z" fill="#7B5ABA"/>
<path d="M864.007 455.152H802.778V450.74C802.778 450.508 802.686 450.286 802.522 450.122C802.358 449.957 802.135 449.865 801.903 449.865H780.91C780.678 449.865 780.455 449.957 780.291 450.122C780.127 450.286 780.035 450.508 780.035 450.74V455.152H766.915V450.74C766.915 450.508 766.823 450.286 766.659 450.122C766.495 449.957 766.272 449.865 766.04 449.865H745.047C744.815 449.865 744.592 449.957 744.428 450.122C744.264 450.286 744.172 450.508 744.172 450.74V455.152H731.052V450.74C731.052 450.508 730.96 450.286 730.796 450.122C730.632 449.957 730.409 449.865 730.177 449.865H709.184C708.952 449.865 708.729 449.957 708.565 450.122C708.401 450.286 708.309 450.508 708.309 450.74V455.152H695.189V450.74C695.189 450.508 695.097 450.286 694.933 450.122C694.769 449.957 694.546 449.865 694.314 449.865H673.322C673.09 449.865 672.867 449.957 672.703 450.122C672.539 450.286 672.447 450.508 672.447 450.74V455.152H659.326V450.74C659.326 450.508 659.234 450.286 659.07 450.122C658.906 449.957 658.683 449.865 658.451 449.865H637.459C637.227 449.865 637.004 449.957 636.84 450.122C636.676 450.286 636.584 450.508 636.584 450.74V455.152H623.463V450.74C623.463 450.508 623.371 450.286 623.207 450.122C623.043 449.957 622.82 449.865 622.588 449.865H601.6C601.368 449.865 601.145 449.957 600.981 450.122C600.817 450.286 600.725 450.508 600.725 450.74V455.152H587.6V450.74C587.6 450.508 587.508 450.286 587.344 450.122C587.18 449.957 586.957 449.865 586.725 449.865H422.281C422.049 449.865 421.826 449.957 421.662 450.122C421.498 450.286 421.406 450.508 421.406 450.74V455.152H408.286V450.74C408.286 450.508 408.194 450.286 408.03 450.122C407.866 449.957 407.643 449.865 407.411 449.865H386.418C386.186 449.865 385.963 449.957 385.799 450.122C385.635 450.286 385.543 450.508 385.543 450.74V455.152H372.423V450.74C372.423 450.508 372.331 450.286 372.167 450.122C372.003 449.957 371.78 449.865 371.548 449.865H350.556C350.324 449.865 350.101 449.957 349.937 450.122C349.773 450.286 349.681 450.508 349.681 450.74V455.152H336.56V450.74C336.56 450.508 336.468 450.286 336.304 450.122C336.14 449.957 335.917 449.865 335.685 449.865H314.693C314.461 449.865 314.238 449.957 314.074 450.122C313.91 450.286 313.818 450.508 313.818 450.74V455.152H300.7V450.74C300.7 450.508 300.608 450.286 300.444 450.122C300.28 449.957 300.057 449.865 299.825 449.865H278.83C278.598 449.865 278.375 449.957 278.211 450.122C278.047 450.286 277.955 450.508 277.955 450.74V455.152H264.835V450.74C264.835 450.508 264.743 450.286 264.579 450.122C264.415 449.957 264.192 449.865 263.96 449.865H242.967C242.735 449.865 242.512 449.957 242.348 450.122C242.184 450.286 242.092 450.508 242.092 450.74V455.152H228.972V450.74C228.972 450.508 228.88 450.286 228.716 450.122C228.552 449.957 228.329 449.865 228.097 449.865H207.1C206.868 449.865 206.645 449.957 206.481 450.122C206.317 450.286 206.225 450.508 206.225 450.74V455.152H165.993C160.425 455.152 155.086 457.364 151.149 461.301C147.212 465.238 145 470.578 145 476.145V485.637C145 491.205 147.212 496.545 151.149 500.482C155.086 504.419 160.425 506.63 165.993 506.63H864.007C869.575 506.63 874.914 504.419 878.851 500.482C882.788 496.545 885 491.206 885 485.638V476.146C885 470.579 882.788 465.239 878.851 461.302C874.914 457.365 869.575 455.153 864.007 455.153V455.152Z" fill="#3F3D56"/>
<path d="M636.211 147.846H382.211V414.846H636.211V147.846Z" fill="#E2E2E2"/>
<path d="M1061 505.738H0V507.738H1061V505.738Z" fill="#E6E6E6"/>
<path d="M957.957 435.873C972.333 451.299 973.076 473.973 973.076 473.973C973.076 473.973 950.511 471.635 936.135 456.209C921.759 440.783 921.016 418.109 921.016 418.109C921.016 418.109 943.581 420.447 957.957 435.873Z" fill="#018ABE"/>
<path d="M1003.21 459.953C987.787 474.329 965.113 475.072 965.113 475.072C965.113 475.072 967.451 452.507 982.877 438.131C998.303 423.755 1020.98 423.012 1020.98 423.012C1020.98 423.012 1018.64 445.577 1003.21 459.953Z" fill="#018ABE"/>
<path d="M999.378 505.738H942.639C941.551 505.739 940.484 505.433 939.561 504.855C938.638 504.278 937.896 503.452 937.42 502.473L925.067 477.08C924.636 476.196 924.437 475.216 924.489 474.233C924.54 473.25 924.841 472.296 925.364 471.462C925.886 470.628 926.611 469.94 927.472 469.463C928.334 468.987 929.302 468.737 930.286 468.738H1011.73C1012.72 468.737 1013.68 468.987 1014.55 469.463C1015.41 469.94 1016.13 470.628 1016.65 471.462C1017.18 472.296 1017.48 473.25 1017.53 474.233C1017.58 475.216 1017.38 476.196 1016.95 477.08L1004.6 502.474C1004.12 503.453 1003.38 504.279 1002.46 504.856C1001.53 505.434 1000.47 505.74 999.379 505.739L999.378 505.738Z" fill="#E5E5E5"/>
<path d="M60.9566 435.873C75.3326 451.299 76.0756 473.973 76.0756 473.973C76.0756 473.973 53.5106 471.635 39.1346 456.209C24.7586 440.783 24.0156 418.109 24.0156 418.109C24.0156 418.109 46.5806 420.447 60.9566 435.873Z" fill="#E5E5E5"/>
<path d="M93.3782 505.738H36.6392C35.5505 505.739 34.4837 505.433 33.5608 504.855C32.6378 504.278 31.896 503.452 31.4202 502.473L19.0672 477.08C18.6358 476.196 18.4367 475.216 18.4885 474.233C18.5403 473.25 18.8414 472.296 19.3635 471.462C19.8855 470.628 20.6113 469.94 21.4725 469.463C22.3337 468.987 23.302 468.737 24.2862 468.738H105.732C106.716 468.737 107.685 468.987 108.546 469.463C109.407 469.94 110.133 470.628 110.655 471.462C111.177 472.296 111.478 473.25 111.53 474.233C111.582 475.216 111.383 476.196 110.951 477.08L98.5982 502.474C98.1224 503.453 97.3806 504.279 96.4576 504.856C95.5347 505.434 94.4679 505.74 93.3792 505.739L93.3782 505.738Z" fill="#018ABE"/>
<path d="M539.855 223.428C558.498 223.428 573.612 208.315 573.612 189.671C573.612 171.028 558.498 155.914 539.855 155.914C521.211 155.914 506.098 171.028 506.098 189.671C506.098 208.315 521.211 223.428 539.855 223.428Z" fill="#A0616A"/>
<path d="M462.188 415.397L483.988 278.16C485.147 270.863 487.846 263.897 491.907 257.725C495.968 251.553 501.296 246.316 507.538 242.364C513.78 238.411 520.792 235.833 528.108 234.801C535.423 233.769 542.875 234.307 549.966 236.379C562.366 239.965 572.983 248.045 579.743 259.04C586.504 270.035 588.923 283.156 586.527 295.839L563.727 418.398L462.188 415.397Z" fill="#7B5ABA"/>
<path d="M549.176 439.951C550.862 438.837 552.283 437.368 553.34 435.646C554.397 433.924 555.063 431.991 555.292 429.983C555.52 427.976 555.306 425.942 554.664 424.027C554.022 422.111 552.968 420.359 551.576 418.895L574.111 375.256L548.733 377.964L531.224 418.99C528.929 421.494 527.63 424.751 527.572 428.148C527.515 431.544 528.703 434.844 530.913 437.424C533.122 440.004 536.2 441.686 539.564 442.151C542.929 442.617 546.348 441.835 549.175 439.952L549.176 439.951Z" fill="#A0616A"/>
<path d="M554.002 411.198C552.755 411.022 551.592 410.47 550.667 409.616L542.045 401.649C541.114 400.784 540.471 399.655 540.202 398.412C539.934 397.17 540.054 395.875 540.545 394.703L557.777 353.858L555.332 273.153C556.046 267.918 558.811 263.18 563.018 259.983C567.226 256.786 572.531 255.391 577.767 256.105C583.002 256.819 587.74 259.584 590.937 263.791C594.134 267.998 595.529 273.304 594.815 278.539L598.995 329.272C600.266 344.67 595.9 360.005 586.711 372.424L559.838 408.753C559.321 409.451 558.663 410.033 557.906 410.46C557.15 410.887 556.312 411.15 555.447 411.232C554.966 411.278 554.481 411.267 554.002 411.198Z" fill="#7B5ABA"/>
<path d="M345.459 171.28C345.827 173.267 346.626 175.149 347.799 176.793C348.973 178.438 350.493 179.805 352.253 180.799C354.012 181.792 355.968 182.388 357.982 182.544C359.996 182.7 362.021 182.412 363.912 181.701L395.312 219.467L402.712 195.041L371.76 162.922C370.348 159.834 367.854 157.37 364.75 155.994C361.646 154.619 358.145 154.427 354.909 155.456C351.673 156.484 348.925 158.661 347.184 161.577C345.444 164.492 344.829 167.944 345.459 171.28Z" fill="#A0616A"/>
<path d="M370.054 186.935C370.702 185.856 371.664 185 372.811 184.481L383.511 179.648C384.671 179.127 385.962 178.975 387.211 179.213C388.46 179.45 389.605 180.065 390.493 180.975L421.387 212.768L496.659 241.983C498.91 243.318 500.876 245.084 502.445 247.18C504.013 249.276 505.154 251.66 505.8 254.196C506.447 256.733 506.587 259.372 506.214 261.963C505.84 264.553 504.96 267.045 503.622 269.295C502.285 271.546 500.518 273.511 498.421 275.078C496.325 276.645 493.94 277.783 491.403 278.428C488.866 279.073 486.227 279.212 483.636 278.837C481.046 278.461 478.555 277.579 476.305 276.241L427.958 260.309C413.284 255.475 400.864 245.477 393.01 232.172L370.034 193.262C369.593 192.513 369.314 191.681 369.216 190.818C369.117 189.954 369.202 189.08 369.463 188.252C369.609 187.791 369.808 187.349 370.057 186.936L370.054 186.935Z" fill="#7B5ABA"/>
<path opacity="0.1" d="M567.236 306.725L565.862 350.706L540.543 394.706L561.684 345.676L567.236 306.725Z" fill="black"/>
<path d="M516.997 172.752C520.479 176.873 526.371 178.035 531.807 178.512C542.846 179.48 558.898 177.912 569.686 175.419C570.456 182.882 568.357 190.928 572.752 197.067C574.812 189.635 576.011 181.99 576.323 174.284C576.456 170.984 576.404 167.56 575.061 164.526C573.718 161.492 570.789 158.917 567.416 158.89C569.922 156.989 572.857 155.734 575.963 155.236L565.283 149.869L568.026 147.053L548.69 145.87L554.29 142.312C545.861 141.155 537.334 140.887 528.849 141.512C524.909 141.802 520.789 142.357 517.597 144.64C514.405 146.923 512.56 151.46 514.542 154.812C512.06 155.219 509.724 156.254 507.754 157.816C505.785 159.379 504.247 161.419 503.286 163.743C501.863 167.351 501.993 171.359 502.432 175.204C503.16 181.353 504.59 187.399 506.692 193.224" fill="#2F2E41"/>
<path d="M661.307 88.1864L353.709 159.201C352.198 159.548 350.612 159.281 349.298 158.46C347.983 157.639 347.048 156.33 346.698 154.82L329.082 78.518C328.735 77.0074 329.002 75.421 329.823 74.1066C330.644 72.7922 331.953 71.8572 333.463 71.5068L641.061 0.492213C642.572 0.145367 644.158 0.411832 645.473 1.23315C646.787 2.05447 647.722 3.36357 648.072 4.87332L665.688 81.1753C666.035 82.6859 665.768 84.2723 664.947 85.5867C664.126 86.901 662.817 87.836 661.307 88.1864Z" fill="white"/>
<path d="M661.307 88.1864L353.709 159.201C352.198 159.548 350.612 159.281 349.298 158.46C347.983 157.639 347.048 156.33 346.698 154.82L329.082 78.518C328.735 77.0074 329.002 75.421 329.823 74.1066C330.644 72.7922 331.953 71.8572 333.463 71.5068L641.061 0.492213C642.572 0.145367 644.158 0.411832 645.473 1.23315C646.787 2.05447 647.722 3.36357 648.072 4.87332L665.688 81.1753C666.035 82.6859 665.768 84.2723 664.947 85.5867C664.126 86.901 662.817 87.836 661.307 88.1864ZM333.989 73.7858C333.083 73.996 332.298 74.5571 331.805 75.3458C331.312 76.1345 331.152 77.0865 331.36 77.993L348.976 154.295C349.186 155.201 349.747 155.987 350.536 156.48C351.325 156.973 352.277 157.132 353.183 156.924L660.781 85.9093C661.687 85.6993 662.473 85.1383 662.966 84.3495C663.459 83.5607 663.619 82.6086 663.41 81.7021L645.794 5.39921C645.584 4.49309 645.023 3.70732 644.234 3.21441C643.446 2.72151 642.494 2.56175 641.587 2.77021L333.989 73.7858Z" fill="#E6E6E6"/>
<path d="M440.721 73.5499C440.213 73.6661 439.732 73.8813 439.307 74.1832C438.882 74.4851 438.521 74.8677 438.244 75.3093C437.967 75.7509 437.779 76.2427 437.692 76.7568C437.605 77.2708 437.621 77.7969 437.737 78.3051C437.853 78.8133 438.069 79.2935 438.371 79.7185C438.673 80.1434 439.056 80.5047 439.497 80.7816C439.939 81.0586 440.431 81.2458 440.945 81.3326C441.459 81.4194 441.985 81.4041 442.493 81.2875L442.507 81.2844L624.819 39.1943C625.843 38.9561 626.731 38.3212 627.288 37.429C627.844 36.5368 628.024 35.4602 627.787 34.4356C627.551 33.4109 626.917 32.5221 626.026 31.9641C625.135 31.4062 624.058 31.2248 623.033 31.4597L440.721 73.5499Z" fill="#E6E6E6"/>
<path d="M446.076 96.7535C445.568 96.8697 445.088 97.085 444.663 97.3868C444.238 97.6887 443.876 98.0714 443.599 98.513C443.322 98.9546 443.135 99.4464 443.048 99.9604C442.961 100.474 442.976 101.001 443.092 101.509C443.209 102.017 443.424 102.497 443.726 102.922C444.028 103.347 444.411 103.708 444.853 103.985C445.294 104.262 445.786 104.449 446.3 104.536C446.814 104.623 447.34 104.608 447.849 104.491L447.862 104.488L526.312 86.3766C527.337 86.1413 528.228 85.5082 528.787 84.6166C529.346 83.725 529.528 82.6478 529.293 81.622C529.058 80.5961 528.425 79.7056 527.534 79.1462C526.642 78.5868 525.565 78.4043 524.539 78.639L524.526 78.642L446.076 96.7535Z" fill="#E6E6E6"/>
<path d="M390.88 124.98C404.033 124.98 414.694 114.318 414.694 101.166C414.694 88.0134 404.033 77.3516 390.88 77.3516C377.728 77.3516 367.066 88.0134 367.066 101.166C367.066 114.318 377.728 124.98 390.88 124.98Z" fill="#018ABE"/>
<path d="M390.209 114.904C389.429 115.085 388.612 115.008 387.881 114.684L387.835 114.664L378.253 110.314C377.808 110.112 377.407 109.825 377.073 109.468C376.74 109.112 376.479 108.693 376.308 108.236C376.136 107.778 376.056 107.292 376.072 106.803C376.089 106.315 376.202 105.835 376.404 105.391C376.606 104.946 376.894 104.545 377.251 104.212C377.608 103.879 378.027 103.619 378.485 103.448C378.942 103.277 379.429 103.198 379.917 103.215C380.405 103.232 380.885 103.346 381.33 103.548L387.539 106.375L396.249 87.2351C396.657 86.339 397.404 85.6416 398.327 85.2964C399.249 84.9511 400.27 84.9862 401.166 85.3939L401.114 85.5189L401.169 85.3932C402.065 85.8021 402.761 86.5496 403.106 87.4716C403.451 88.3936 403.417 89.4148 403.01 90.3112L392.765 112.827C392.527 113.346 392.174 113.803 391.731 114.163C391.288 114.522 390.769 114.776 390.212 114.902L390.209 114.904Z" fill="white"/>
</g>
<defs>
<clipPath id="clip0_293_1458">
<rect width="1061" height="508" fill="white"/>
</clipPath>
</defs>
</svg>
