<svg width="750" height="571" viewBox="0 0 750 571" fill="none" xmlns="http://www.w3.org/2000/svg">
<g clip-path="url(#clip0_293_1674)">
<path d="M570.923 79.4853C564.196 54.9612 618.449 33.9313 632.696 53.6806C634.677 50.8728 641.998 49.1673 645.357 50.0287C648.716 50.89 651.541 53.0432 654.297 55.1276C658.087 58.0388 662.014 61.0534 664.34 65.2393C666.683 69.408 667.044 75.0927 663.892 78.7101C661.394 81.5868 654.021 83.4473 650.266 84.2052C647.648 84.7392 645.443 85.1699 643.548 85.4799C641.827 83.0002 641.034 79.9935 641.309 76.9875C640.033 77.8478 638.964 78.9798 638.178 80.3021C637.391 81.6245 636.908 83.1045 636.761 84.6359C636.709 85.2733 657.932 163.359 657.932 163.359C655.382 164.81 652.7 166.016 649.922 166.959C644.426 158.56 640.216 149.386 637.433 139.742C636.793 146.191 636.874 152.691 637.674 159.121C638.099 162.727 638.709 166.309 639.5 169.853C614.281 175.297 576.349 173.505 559.847 150.353C559.844 150.258 559.841 150.162 559.838 150.066C559.825 149.152 559.495 148.271 558.904 147.574C558.313 146.877 557.498 146.407 556.599 146.244C555.699 146.082 554.772 146.237 553.974 146.684C553.177 147.13 552.559 147.84 552.228 148.692C551.827 149.713 551.459 150.598 551.13 151.301C546.324 134.109 552.543 114.213 570.923 79.4853Z" fill="#2F2E41"/>
<path d="M528.008 490.641V491.444C527.976 491.177 527.976 490.907 528.008 490.641Z" fill="#2F2E41"/>
<path d="M552.707 351.85C553.348 351.677 554.001 351.55 554.661 351.471C553.904 351.594 553.252 351.721 552.707 351.85Z" fill="#2F2E41"/>
<path d="M552.137 351.997C552.31 351.949 552.503 351.9 552.708 351.852C552.517 351.901 552.333 351.938 552.137 351.997Z" fill="#2F2E41"/>
<path d="M734.599 571.002H642.16C640.841 569.949 639.924 568.475 639.564 566.826C639.203 565.178 639.421 563.456 640.18 561.949C642.706 556.157 637.757 550.865 637.757 550.865C636.077 548.897 634.909 546.545 634.357 544.017C633.804 541.489 633.884 538.864 634.589 536.374C637.038 527.82 627.44 503.676 627.44 503.676C627.44 503.676 622.266 534.852 615.926 571.002H528.011C526.539 568.493 525.762 565.637 525.762 562.728C525.762 559.819 526.539 556.963 528.011 554.454C533.135 545.767 528.011 544.101 528.011 544.101C528.011 544.101 522.888 534.38 528.011 527.322C533.135 520.263 528.011 491.443 528.011 491.443C528.204 492.717 529.664 490.401 531.911 485.543C535.332 478.152 540.561 464.862 545.843 449.432C549.619 438.42 553.427 426.303 556.608 414.456H556.616C557.45 411.344 558.24 408.26 558.987 405.204C560.446 399.212 561.698 393.389 562.647 387.921C564.709 376.144 565.389 366.028 563.806 359.448C562.493 353.973 559.62 350.953 554.662 351.47C557.319 351.03 561.211 350.613 566.007 350.219C566.872 350.15 567.767 350.08 568.694 350.003C604.465 347.3 681.213 345.748 681.213 345.748L704.721 387.844L734.491 441.169C734.491 441.169 733.68 512.703 734.599 571.002Z" fill="#2F2E41"/>
<path d="M635.931 163.802L581.772 152.313L571.019 173.959L534.806 194.924C534.806 194.924 558.148 290.367 558.015 303.791C557.677 337.871 503.147 414.268 544.335 408.391C585.524 402.514 593.89 377.896 607.113 381.788C619.038 385.299 633.598 400.916 643.347 389.747C653.095 378.577 656.528 391.475 662.692 391.921C665.622 392.133 663.858 377.817 671.228 392.366C678.598 406.915 717.682 387.331 704.435 374.084C682.374 352.022 677.89 189.393 677.89 189.393L653.331 181.836L635.931 163.802Z" fill="#E6E6E6"/>
<path d="M533.78 510.41C535.956 507.815 537.034 504.474 536.784 501.096C536.534 497.719 534.976 494.573 532.441 492.327C531.919 491.878 531.36 491.474 530.771 491.117L539.827 446.676L518.893 434.146L513.07 496.367C511.782 498.925 511.376 501.836 511.917 504.648C512.457 507.46 513.913 510.013 516.058 511.911C517.289 512.978 518.718 513.793 520.263 514.309C521.809 514.825 523.441 515.031 525.066 514.915C526.691 514.8 528.278 514.366 529.735 513.638C531.193 512.91 532.493 511.901 533.56 510.671C533.635 510.585 533.708 510.498 533.78 510.41Z" fill="#A0616A"/>
<path d="M598.781 276.153C598.65 274.724 596.827 274.075 594.302 273.179C591.765 272.398 589.354 271.256 587.143 269.789C581.552 265.75 583.753 261.526 586.795 255.688C587.39 254.552 588.008 253.371 588.587 252.143C590.309 248.506 587.568 233.5 580.424 207.537C578.223 199.544 578.231 193.899 576.71 190.153C575.196 186.408 572.161 184.562 563.89 184.176C553.893 183.671 544.104 187.151 536.668 193.853C536.467 194.03 536.259 194.223 536.058 194.409C535.679 194.764 535.309 195.127 534.946 195.497C528.069 202.415 524.134 211.724 523.964 221.476L523.926 223.137L522.219 302.464L517.423 372.075L510.812 467.967L515.709 468.207L535.247 469.18L537.618 469.295L543.24 445.711L550.005 417.33L552.492 406.904L560.206 374.562L563.805 359.449L566.006 350.22L566.902 346.452L571.273 328.134C571.373 327.747 581.428 288.076 593.02 281.443C597.345 278.971 598.905 277.535 598.781 276.153Z" fill="#E6E6E6"/>
<path d="M728.837 509.937C726.395 507.591 724.964 504.384 724.85 501C724.736 497.615 725.947 494.32 728.226 491.814C728.697 491.312 729.209 490.85 729.757 490.433L715.98 447.221L735.448 432.516L747.919 493.751C749.475 496.155 750.191 499.007 749.955 501.86C749.72 504.714 748.546 507.409 746.618 509.526C745.509 510.719 744.176 511.683 742.695 512.362C741.213 513.04 739.613 513.42 737.985 513.48C736.356 513.541 734.732 513.279 733.205 512.712C731.678 512.144 730.277 511.281 729.083 510.172C729 510.095 728.918 510.017 728.837 509.937Z" fill="#A0616A"/>
<path d="M738.363 416.171C738.363 416.171 723.18 362.751 727.81 356.968C732.44 351.185 718.765 350.056 724.658 339.286C730.551 328.515 722.417 326.714 722.417 326.714L718.003 301.951L710.112 241.126L709.873 239.317L707.578 221.621C706.937 216.567 705.283 211.694 702.716 207.293C700.148 202.893 696.72 199.055 692.635 196.01C692.427 195.85 692.214 195.697 692 195.543C691.029 194.844 690.036 194.196 689.023 193.599C681.448 189.131 672.553 187.441 663.868 188.821C647.502 191.37 652.596 197.473 649.941 213.823C645.628 240.407 644.509 255.616 646.612 259.052C647.321 260.209 648.065 261.316 648.775 262.379C652.429 267.864 655.071 271.822 649.943 276.447C647.899 278.137 645.626 279.528 643.19 280.578C640.78 281.745 639.035 282.582 639.059 284.017C639.086 285.407 640.79 286.662 645.352 288.652C650.88 291.072 656.818 300.218 661.681 309.562C665.54 317.094 668.981 324.832 671.99 332.742L713.79 450.303L720.608 469.476L722.96 469.104L742.274 466.042L747.117 465.275L738.363 416.171Z" fill="#E6E6E6"/>
<path d="M613.08 151.501C637.483 151.501 657.266 131.719 657.266 107.316C657.266 82.9125 637.483 63.1299 613.08 63.1299C588.677 63.1299 568.895 82.9125 568.895 107.316C568.895 131.719 588.677 151.501 613.08 151.501Z" fill="#A0616A"/>
<path d="M546.81 82.9306C540.083 58.4065 594.336 37.3766 608.582 57.1259C610.563 54.3181 617.884 52.6127 621.243 53.474C624.603 54.3353 627.428 56.4885 630.184 58.5729C633.974 61.4841 637.901 64.4987 640.227 68.6846C642.569 72.8533 642.931 78.538 639.779 82.1554C637.281 85.0322 629.908 86.8926 626.153 87.6506C623.535 88.1846 621.33 88.6152 619.435 88.9253C617.714 86.4455 616.921 83.4388 617.195 80.4328C615.92 81.2932 614.851 82.4251 614.064 83.7475C613.278 85.0698 612.794 86.5498 612.648 88.0812C612.596 88.7186 633.818 166.804 633.818 166.804C631.269 168.256 628.586 169.461 625.808 170.405C620.312 162.005 616.103 152.831 613.319 143.187C612.68 149.636 612.761 156.136 613.561 162.567C613.986 166.173 614.596 169.755 615.387 173.299C590.168 178.742 552.236 176.951 535.733 153.799C535.73 153.703 535.727 153.607 535.725 153.511C535.712 152.597 535.382 151.716 534.791 151.019C534.2 150.322 533.385 149.852 532.486 149.69C531.586 149.527 530.658 149.683 529.861 150.129C529.063 150.576 528.446 151.286 528.115 152.137C527.714 153.159 527.346 154.043 527.017 154.746C522.211 137.554 528.429 117.658 546.81 82.9306Z" fill="#2F2E41"/>
<path d="M158.877 53.6816C158.056 55.595 132.739 55.39 131.58 57.0938C122.64 70.2475 154.866 126.213 145.926 139.384L144.681 140.868C147.597 139.524 150.399 137.944 153.058 136.143C153.296 130.751 153.535 125.343 153.791 119.952C156.469 123.378 158.63 127.177 160.206 131.229C162.287 129.762 163.995 127.042 172.916 121.692C176.528 117.725 180.692 114.297 185.279 111.515L158.877 53.6816Z" fill="#2F2E41"/>
<path d="M177.259 161.484C174.465 159.664 171.277 158.537 167.961 158.195C164.644 157.854 161.294 158.308 158.188 159.521C155.082 160.734 152.31 162.669 150.102 165.168C147.894 167.666 146.314 170.655 145.493 173.887L107.021 274.128L40.8922 236.585C40.6018 232.27 38.9523 228.158 36.1801 224.838C33.408 221.518 29.6557 219.161 25.4614 218.106C21.2671 217.05 16.8463 217.35 12.833 218.963C8.81969 220.575 5.42013 223.417 3.12187 227.081C0.823609 230.745 -0.255277 235.042 0.0399542 239.357C0.335185 243.672 1.98937 247.783 4.76524 251.1C7.54112 254.417 11.2961 256.769 15.4916 257.82C19.6871 258.87 24.1075 258.565 28.119 256.949C42.0451 271.812 102.42 332.751 127.415 308.94C148.424 288.927 178.743 211.361 186.041 184.576C187.21 180.292 186.99 175.749 185.412 171.599C183.833 167.449 180.979 163.907 177.259 161.484Z" fill="#FFB6B6"/>
<path d="M105.02 313.141L117.16 368.014L205.936 376.044L214.094 328.264L105.02 313.141Z" fill="#FFB6B6"/>
<path d="M240.625 453.858C240.585 454.645 240.536 455.423 240.479 456.21C239.628 467.58 238.655 480.693 237.601 495.064C235.938 517.868 234.081 543.836 232.208 571.003H46L82.113 462.458C82.113 462.458 96.6946 454.429 89.2709 440.943C81.8473 427.457 96.4543 438.204 96.5902 418.943C96.7261 399.683 109.815 379.192 109.815 379.192L111.965 350.029L113.189 350.054L210.092 351.667L211.86 351.7L214.837 376.735C232.908 398.239 242.127 425.809 240.625 453.858Z" fill="#2F2E41"/>
<path d="M160.425 134.891L204.613 132.614L225.137 165.045C225.137 165.045 263.754 171.501 261.077 217.006C258.4 262.511 214.092 302.442 214.092 302.442L215.986 295.948L212.697 305.347L213.119 310.625L217.606 316.214L218.068 321.994L214.092 331.14C214.609 331.968 214.884 332.925 214.884 333.902C214.885 334.879 214.612 335.836 214.096 336.666C213.58 337.495 212.842 338.163 211.966 338.595C211.089 339.026 210.109 339.203 209.137 339.105L145.289 332.707C143.836 328.708 142.669 323.923 136.843 331.888L130.828 331.306L105.825 328.883L104.354 323.522C103.517 320.476 103.387 317.279 103.973 314.175C104.558 311.071 105.844 308.142 107.732 305.609C105.561 298.809 106.129 291.429 109.318 285.042L109.437 284.802L112.092 282.589C112.092 282.589 83.044 238.948 116.391 206.078L129.774 183.326L144.75 165.055L160.425 134.891Z" fill="#7B5ABA"/>
<path d="M171.426 115.747C194.568 115.747 213.328 96.9867 213.328 73.8447C213.328 50.7027 194.568 31.9424 171.426 31.9424C148.284 31.9424 129.523 50.7027 129.523 73.8447C129.523 96.9867 148.284 115.747 171.426 115.747Z" fill="#FFB6B6"/>
<path d="M203.249 134.208C199.837 131.357 197.462 127.458 196.493 123.119C195.718 128.388 195.921 133.755 197.091 138.951C194.821 140.657 192.621 142.278 190.539 143.745C188.963 139.693 186.802 135.893 184.124 132.468C183.869 137.859 183.63 143.267 183.391 148.658C180.732 150.459 177.931 152.04 175.014 153.384L176.26 151.9C185.199 138.729 162.065 114.486 171.005 101.332C173.513 97.6471 162.185 68.5248 153.552 67.2111C145.875 66.051 146.199 68.2688 138.76 69.8896C137.988 66.668 136.789 63.564 135.195 60.6598C135.619 63.8959 135.521 67.1792 134.905 70.3843C132.26 70.4867 130.18 68.8017 127.364 68.3712C109.399 65.6245 111.225 46.1926 116.223 40.0336C121.239 33.8919 137.89 32.0493 145.568 30.0531C146.267 29.3708 147.854 29.7973 148.553 29.149C163.266 15.6839 182.944 13.454 200.652 19.422C219.536 25.7864 231.311 38.1045 237.353 57.0942L239.087 72.2908C240.641 77.177 238.685 99.9121 237.353 104.864C232.175 124.112 221.148 114.503 203.249 134.208Z" fill="#2F2E41"/>
<path d="M264.346 332.73L262.697 204.252C262.611 198.809 260.388 193.619 256.509 189.8C252.629 185.981 247.404 183.841 241.96 183.841C239.144 183.841 236.357 184.414 233.77 185.526C231.183 186.639 228.849 188.266 226.911 190.309C224.974 192.353 223.472 194.769 222.499 197.412C221.526 200.055 221.101 202.868 221.25 205.68L227.055 339.085L227.165 420.295C223.744 421.746 220.852 424.215 218.883 427.366C216.913 430.518 215.962 434.199 216.158 437.911C216.354 441.622 217.687 445.182 219.977 448.109C222.268 451.036 225.403 453.187 228.958 454.27C232.513 455.352 236.315 455.314 239.848 454.161C243.381 453.007 246.473 450.794 248.704 447.823C250.935 444.851 252.197 441.264 252.319 437.55C252.441 433.835 251.416 430.174 249.385 427.062L264.346 332.73Z" fill="#FFB6B6"/>
<path d="M480.61 498.95C480.61 498.95 478.059 544.836 476.887 571.006H389.053C387.245 547.19 386.636 529.693 386.636 529.693L381.83 571.006H293.047L287.543 494.493L314.142 428.559C314.142 428.559 458.289 418.562 471.66 431.244C485.022 443.917 480.61 498.95 480.61 498.95Z" fill="#2F2E41"/>
<path d="M402.939 112.952C429.436 112.952 450.916 91.4719 450.916 64.9746C450.916 38.4774 429.436 16.9971 402.939 16.9971C376.441 16.9971 354.961 38.4774 354.961 64.9746C354.961 91.4719 376.441 112.952 402.939 112.952Z" fill="#FFB6B6"/>
<path d="M458.862 49.3854C453.934 51.6324 450.741 67.9067 446.867 64.1233C442.994 60.3398 443.253 55.4163 438.031 54.02C433.813 52.8876 429.275 54.1818 425.429 56.2229C424.742 56.583 424.076 56.9746 423.427 57.3641C422.999 57.0778 422.572 56.8085 422.115 56.56C418.674 54.7188 414.658 54.2671 410.895 55.298C413.869 56.2941 416.454 58.1999 418.286 60.746C416.999 61.6087 415.695 62.4736 414.361 63.24C403.218 69.6703 387.362 55.6879 375.634 50.4351C382.98 64.2214 379.363 69.931 372.984 84.1891L372.763 85.001C373.126 81.4275 362.068 78.7644 362.709 83.7948C363.165 87.3664 366.255 95.3051 367.987 98.4585C355.655 84.1998 347.228 66.751 349.006 48.7512C349.393 44.97 349.277 40.9804 351.227 37.6985C353.179 34.4336 357.25 32.1425 360.851 33.3875C360.545 27.6472 361.802 21.9314 364.485 16.848C367.169 11.7645 371.181 7.5033 376.093 4.51742C381.005 1.53154 386.634 -0.0674261 392.383 -0.109499C398.131 -0.151572 403.783 1.36483 408.738 4.27849C413.343 6.98033 417.187 10.8016 421.407 14.0978C425.627 17.3939 430.492 20.267 435.844 20.5391C439.238 20.7028 442.933 19.874 445.849 21.6323C449.228 23.6725 449.806 27.9441 450.313 32.0544C447.3 32.3514 444.443 33.5402 442.109 35.4687C445.227 35.1507 448.366 35.8239 451.079 37.3927C451.13 37.416 451.18 37.4439 451.226 37.4762C453.012 44.2691 452.829 45.775 458.862 49.3854Z" fill="#2F2E41"/>
<path d="M293.258 451.771C334.115 403.948 320.314 343.12 304.099 281.717L307.184 191.007C307.336 186.557 308.555 182.209 310.741 178.33C312.926 174.451 316.013 171.155 319.74 168.72L361.45 141.471L377.684 117.999L422.433 122.474L447.248 148.717L474.716 169.686C481.613 174.951 486.86 182.079 489.84 190.228C492.82 198.377 493.408 207.208 491.535 215.68L465.249 334.552C465.249 334.552 476.243 396.177 469.535 402.983C462.827 409.789 445.542 402.986 459.249 410.627C475.698 419.795 490.655 418.103 482.331 426.428C474.007 434.752 484.542 446.325 484.542 446.325L293.258 451.771Z" fill="#7B5ABA"/>
<path d="M310.729 521.276L317.54 472.749L290.362 464.99L284.986 516.552C282.737 518.614 281.107 521.263 280.281 524.201C279.454 527.139 279.464 530.248 280.308 533.181C281.152 536.113 282.798 538.752 285.06 540.801C287.321 542.85 290.11 544.227 293.111 544.777C296.113 545.328 299.209 545.031 302.05 543.919C304.892 542.807 307.367 540.924 309.198 538.482C311.028 536.04 312.141 533.136 312.411 530.097C312.682 527.057 312.099 524.002 310.729 521.276Z" fill="#FFB6B6"/>
<path d="M362.471 150.218C362.471 150.218 285.11 175.396 283.265 193.819C281.42 212.242 282.032 223.52 273.867 297.24L274.297 495.823C274.297 495.823 326.163 506.928 320.844 495.055C315.525 483.182 317.381 477.596 317.381 477.596C317.381 477.596 328.501 473.208 325.718 459.267C322.934 445.326 336.894 376.241 336.894 376.241L345.704 252.34L362.471 150.218Z" fill="#7B5ABA"/>
<path d="M457.859 518.705L454.234 469.837L481.862 463.871L483.856 515.674C485.965 517.879 487.418 520.629 488.051 523.614C488.683 526.599 488.471 529.702 487.436 532.573C486.402 535.444 484.588 537.97 482.197 539.866C479.806 541.763 476.934 542.955 473.903 543.308C470.872 543.661 467.802 543.162 465.039 541.867C462.276 540.571 459.929 538.531 458.262 535.975C456.595 533.418 455.675 530.448 455.603 527.397C455.532 524.346 456.313 521.336 457.859 518.705Z" fill="#FFB6B6"/>
<path d="M430.48 145.06C430.48 145.06 506.031 175.241 506.667 193.745C507.304 212.249 505.956 223.463 509.285 297.559L495.875 495.689C495.875 495.689 443.394 503.38 449.478 491.88C455.562 480.38 454.075 474.685 454.075 474.685C454.075 474.685 443.265 469.579 446.954 455.85C450.643 442.121 441.229 372.271 441.229 372.271L440.536 248.059L430.48 145.06Z" fill="#7B5ABA"/>
</g>
<defs>
<clipPath id="clip0_293_1674">
<rect width="750" height="571.006" fill="white"/>
</clipPath>
</defs>
</svg>
